<svg width="26.000000" height="26.000000" viewBox="0 0 26 26" fill="none" xmlns="http://www.w3.org/2000/svg" xmlns:xlink="http://www.w3.org/1999/xlink">
	<desc>
			Created with Pixso.
	</desc>
	<defs/>
	<path id="Vector" d="M10.8 11.6C12.12 13.74 11.93 16.25 10.34 17.26C8.76 18.25 6.39 17.32 5.05 15.19C3.73 13.06 3.93 10.53 5.52 9.54C7.11 8.55 9.47 9.47 10.8 11.6ZM13 20.47C15.6 20.47 16.25 19.5 16.25 19.5C16.25 19.5 15.6 22.1 13 22.1C10.4 22.1 9.75 19.53 9.75 19.5C9.75 19.5 10.4 20.47 13 20.47ZM20.47 9.54C22.06 10.53 22.26 13.06 20.94 15.19C19.6 17.32 17.23 18.25 15.65 17.26C14.06 16.25 13.87 13.74 15.19 11.6C16.52 9.47 18.88 8.55 20.47 9.54ZM13 23.4C16.25 23.4 23.4 16.71 23.4 11.7C23.4 6.68 18.73 2.59 13 2.59C7.26 2.59 2.59 6.68 2.59 11.7C2.59 16.71 9.75 23.4 13 23.4ZM13 0C20.15 0 26 5.25 26 11.7C26 17 18.61 26 13 26C7.38 26 0 17 0 11.7C0 5.25 5.84 0 13 0Z" fill="#02E4C0" fill-opacity="1.000000" fill-rule="nonzero"/>
</svg>
