<svg width="60.000000" height="71.000000" viewBox="0 0 60 71" fill="none" xmlns="http://www.w3.org/2000/svg" xmlns:xlink="http://www.w3.org/1999/xlink">
	<desc>
			Created with Pixso.
	</desc>
	<defs>
		<clipPath id="clip0_399">
			<rect width="60.000000" height="70.546875" transform="translate(-0.628052 0.000000)" fill="white" fill-opacity="0"/>
		</clipPath>
	</defs>
	<rect width="60.000000" height="70.546875" transform="translate(-0.628052 0.000000)" fill="#FFFFFF" fill-opacity="0"/>
	<g clip-path="url(#clip0_399)">
		<path d="M17.74 0.2C17.4 0.2 17.06 0.29 16.76 0.45C15.77 1 15.41 2.27 15.95 3.26L18.19 7.29C12.81 10.61 9.25 16.3 9.25 22.78L9.25 23.99C8.21 22.8 6.69 22.05 5 22.05C1.89 22.05 -0.63 24.57 -0.63 27.68L-0.63 45.03C-0.63 48.13 1.89 50.66 5 50.66C6.69 50.66 8.21 49.91 9.24 48.72L9.24 51.15C9.24 54.43 11.93 57.11 15.2 57.11L16.71 57.11L16.71 64.82C16.71 67.93 19.24 70.45 22.34 70.45C25.45 70.45 27.97 67.93 27.97 64.82L27.97 57.11L30.59 57.11L30.59 64.82C30.59 67.93 33.11 70.45 36.22 70.45C39.33 70.45 41.85 67.93 41.85 64.82L41.85 57.11L43.36 57.11C46.64 57.11 49.32 54.43 49.32 51.15L49.32 48.72C50.35 49.91 51.87 50.66 53.57 50.66C56.67 50.66 59.2 48.13 59.2 45.03L59.2 27.68C59.2 24.57 56.67 22.05 53.57 22.05C51.87 22.05 50.35 22.8 49.32 23.99L49.32 22.99L49.32 22.93C49.32 22.87 49.32 22.82 49.32 22.78C49.32 16.3 45.75 10.62 40.37 7.29L42.61 3.26C43.16 2.27 42.8 1 41.81 0.45C41.51 0.29 41.17 0.2 40.82 0.2C40.09 0.19 39.38 0.57 39 1.25L36.66 5.48C34.37 4.64 31.88 4.18 29.28 4.18C26.68 4.18 24.19 4.63 21.9 5.48L19.56 1.25C19.19 0.57 18.47 0.19 17.74 0.2Z" fill="#FFFFFF" fill-opacity="1.000000" fill-rule="nonzero"/>
		<path d="M5 23.52C2.68 23.52 0.83 25.36 0.83 27.68L0.83 45.03C0.83 47.35 2.68 49.19 5 49.19C7.32 49.19 9.16 47.35 9.16 45.03L9.16 27.68C9.16 25.36 7.32 23.52 5 23.52ZM53.57 23.52C51.25 23.52 49.4 25.36 49.4 27.68L49.4 45.03C49.4 47.35 51.25 49.19 53.57 49.19C55.89 49.19 57.73 47.35 57.73 45.03L57.73 27.68C57.73 25.36 55.89 23.52 53.57 23.52Z" fill="#A4C639" fill-opacity="1.000000" fill-rule="nonzero"/>
		<path d="M22.34 43.31C20.03 43.31 18.18 45.16 18.18 47.48L18.18 64.82C18.18 67.14 20.03 68.99 22.34 68.99C24.66 68.99 26.51 67.14 26.51 64.82L26.51 47.48C26.51 45.16 24.66 43.31 22.34 43.31ZM36.22 43.31C33.9 43.31 32.06 45.16 32.06 47.48L32.06 64.82C32.06 67.14 33.9 68.99 36.22 68.99C38.54 68.99 40.38 67.14 40.38 64.82L40.38 47.48C40.38 45.16 38.54 43.31 36.22 43.31Z" fill="#A4C639" fill-opacity="1.000000" fill-rule="nonzero"/>
		<path d="M17.75 1.66C17.65 1.66 17.56 1.69 17.47 1.74C17.17 1.9 17.08 2.25 17.24 2.54L20.18 7.84C14.53 10.78 10.72 16.36 10.71 22.76L47.85 22.76C47.84 16.36 44.03 10.78 38.39 7.84L41.32 2.54C41.49 2.25 41.39 1.9 41.09 1.74C41.01 1.69 40.91 1.66 40.81 1.66C40.6 1.66 40.4 1.77 40.29 1.97L37.32 7.33C34.89 6.25 32.16 5.64 29.28 5.64C26.4 5.64 23.68 6.25 21.25 7.33L18.27 1.97C18.22 1.88 18.15 1.8 18.06 1.74C17.96 1.69 17.86 1.66 17.75 1.66L17.75 1.66ZM10.71 24.23L10.71 51.15C10.71 51.74 10.83 52.32 11.05 52.87C11.28 53.41 11.61 53.91 12.02 54.33C12.44 54.74 12.94 55.07 13.48 55.3C14.03 55.52 14.61 55.64 15.2 55.64L43.36 55.64C43.95 55.64 44.54 55.52 45.08 55.3C45.63 55.07 46.12 54.74 46.54 54.33C46.96 53.91 47.29 53.41 47.51 52.87C47.74 52.32 47.85 51.74 47.85 51.15L47.85 24.23L10.71 24.23L10.71 24.23Z" fill="#A4C639" fill-opacity="1.000000" fill-rule="nonzero"/>
		<path d="M20.71 12.87C19.86 12.87 19.16 13.57 19.16 14.42C19.16 15.27 19.86 15.97 20.71 15.97C21.56 15.97 22.26 15.27 22.26 14.42C22.26 13.57 21.56 12.87 20.71 12.87ZM37.85 12.87C37 12.87 36.3 13.57 36.3 14.42C36.3 15.27 37 15.97 37.85 15.97C38.7 15.97 39.4 15.27 39.4 14.42C39.4 13.57 38.7 12.87 37.85 12.87Z" fill="#FFFFFF" fill-opacity="1.000000" fill-rule="nonzero"/>
	</g>
</svg>
