<svg width="60.000000" height="60.000000" viewBox="0 0 60 60" fill="none" xmlns="http://www.w3.org/2000/svg" xmlns:xlink="http://www.w3.org/1999/xlink">
	<desc>
			Created with Pixso.
	</desc>
	<defs>
		<clipPath id="clip0_386">
			<rect width="60.000000" height="60.000000" transform="translate(-0.628052 -0.726562)" fill="white" fill-opacity="0"/>
		</clipPath>
		<linearGradient id="paint_linear_0_387_0" x1="29.371948" y1="-0.726562" x2="29.371948" y2="59.273438" gradientUnits="userSpaceOnUse">
			<stop stop-color="#17C9FB"/>
			<stop offset="1.000000" stop-color="#1A74E8"/>
		</linearGradient>
	</defs>
	<rect width="60.000000" height="60.000000" transform="translate(-0.628052 -0.726562)" fill="#FFFFFF" fill-opacity="0"/>
	<g clip-path="url(#clip0_386)">
		<path d="M12.51 -0.73L46.23 -0.73C53.48 -0.73 59.37 5.15 59.37 12.41L59.37 46.13C59.37 53.39 53.48 59.27 46.23 59.27L12.51 59.27C5.25 59.27 -0.63 53.39 -0.63 46.13L-0.63 12.41C-0.63 5.15 5.25 -0.73 12.51 -0.73Z" fill="url(#paint_linear_0_387_0)" fill-opacity="1.000000" fill-rule="nonzero"/>
		<path d="M18.6 42.82L18.6 42.82L16.55 46.37C15.8 47.67 14.14 48.11 12.85 47.37C11.55 46.62 11.1 44.96 11.85 43.66L13.36 41.04L13.51 40.79C13.77 40.42 14.41 39.78 15.69 39.9C15.69 39.9 18.69 40.22 18.91 41.79C18.91 41.79 18.94 42.3 18.6 42.82ZM47.69 33.74L41.29 33.74C40.86 33.71 40.67 33.56 40.59 33.47L40.59 33.46L33.74 21.6L33.73 21.6L33.32 21.02C32.65 19.99 31.58 22.62 31.58 22.62C30.3 25.55 31.76 28.89 32.27 29.89L41.78 46.37C42.53 47.67 44.19 48.11 45.48 47.36C46.78 46.61 47.23 44.95 46.48 43.66L44.1 39.54C44.05 39.44 43.97 39.17 44.46 39.17L47.69 39.17C49.19 39.17 50.4 37.95 50.4 36.45C50.4 34.96 49.19 33.74 47.69 33.74L47.69 33.74ZM35.27 37.43C35.27 37.43 35.61 39.17 34.29 39.17L10.64 39.17C9.14 39.17 7.93 37.95 7.93 36.45C7.93 34.96 9.14 33.74 10.64 33.74L16.72 33.74C17.7 33.69 17.93 33.12 17.93 33.12L17.94 33.12L25.87 19.38L25.87 19.38C26.02 19.11 25.9 18.86 25.87 18.82L23.25 14.28C22.5 12.98 22.95 11.32 24.25 10.58C25.54 9.83 27.2 10.27 27.95 11.57L29.17 13.67L30.38 11.57C31.13 10.27 32.79 9.83 34.08 10.58C35.38 11.33 35.83 12.99 35.08 14.28L24.03 33.41C23.98 33.53 23.97 33.71 24.33 33.74L30.93 33.74L30.93 33.81C30.93 33.81 34.75 33.87 35.27 37.43Z" fill="#FFFFFF" fill-opacity="1.000000" fill-rule="nonzero"/>
	</g>
</svg>
