<svg width="192.000000" height="192.000000" viewBox="0 0 192 192" fill="none" xmlns="http://www.w3.org/2000/svg" xmlns:xlink="http://www.w3.org/1999/xlink">
	<desc>
			Created with Pixso.
	</desc>
	<defs/>
	<path id="Subtract" d="M190.42 95.21C190.42 147.79 147.79 190.42 95.21 190.42C42.62 190.42 0 147.79 0 95.21C0 42.62 42.62 0 95.21 0C147.79 0 190.42 42.62 190.42 95.21ZM161.65 95.26C161.65 131.93 131.93 161.65 95.27 161.65C58.61 161.65 28.89 131.93 28.89 95.26C28.89 58.6 58.61 28.88 95.27 28.88C131.93 28.88 161.65 58.6 161.65 95.26Z" fill="#181818" fill-opacity="1.000000" fill-rule="evenodd"/>
	<path id="Union" d="M105.11 18.13L107.13 21.9L109.51 22.18L107.24 17.95C108.09 17.72 108.78 17.32 109.29 16.72C109.79 16.13 110.11 15.39 110.21 14.49C110.24 14.28 110.25 14.08 110.25 13.89C110.25 13.25 110.12 12.67 109.86 12.15C109.53 11.48 109.01 10.92 108.29 10.49C107.56 10.06 106.68 9.78 105.64 9.66L100.75 9.08L99.35 20.98L101.56 21.24L101.97 17.77L104.65 18.09C104.86 18.11 105.01 18.13 105.11 18.13ZM87.18 20.86C88.19 21.34 89.32 21.51 90.53 21.43C91.74 21.34 92.83 21.01 93.77 20.39C94.7 19.79 95.42 19.02 95.92 18.04C96.34 17.21 96.55 16.31 96.55 15.34C96.55 15.17 96.54 15 96.53 14.83C96.45 13.65 96.1 12.62 95.47 11.73C94.84 10.83 94.02 10.16 93.01 9.69C92 9.23 90.87 9.05 89.66 9.13C88.45 9.22 87.36 9.55 86.42 10.15C85.49 10.77 84.77 11.54 84.27 12.52C83.85 13.35 83.64 14.26 83.64 15.23C83.64 15.4 83.65 15.57 83.66 15.74C83.74 16.9 84.09 17.92 84.72 18.82C85.35 19.72 86.17 20.4 87.18 20.86ZM79.34 22.71L79.65 10.1L77.62 10.71L77.36 20.37L71.79 12.49L69.83 13.09L69.52 22.7L64.02 14.86L61.81 15.53L69.09 25.83L71.37 25.14L71.67 15.78L77.08 23.4L79.34 22.71ZM92.51 18.78C91.9 19.19 91.2 19.42 90.39 19.48C89.59 19.54 88.86 19.4 88.2 19.09C87.55 18.77 87 18.31 86.59 17.69C86.19 17.08 85.95 16.38 85.9 15.58C85.89 15.46 85.88 15.34 85.88 15.23C85.88 14.56 86.02 13.95 86.29 13.37C86.6 12.71 87.08 12.17 87.68 11.76C88.29 11.36 89 11.14 89.8 11.08C90.6 11.02 91.33 11.14 91.99 11.46C92.64 11.77 93.19 12.25 93.6 12.85C94 13.48 94.24 14.18 94.3 14.98C94.3 15.1 94.31 15.22 94.31 15.33C94.31 16 94.17 16.61 93.9 17.17C93.59 17.85 93.11 18.38 92.51 18.78ZM114.79 20.31L117.17 18.98L119.79 24.99L122.29 25.73L119.05 17.86L125.4 14.16L123 13.45L115.58 17.66L117.33 11.76L115.19 11.13L111.79 22.62L113.92 23.25L114.79 20.31ZM107.44 12.39C107.81 12.78 108.01 13.27 108.01 13.86C108.01 13.98 108 14.1 107.98 14.22C107.89 14.99 107.57 15.54 107.03 15.89C106.49 16.25 105.73 16.37 104.76 16.26L102.18 15.96L102.74 11.21L105.32 11.52C106.29 11.63 107 11.92 107.44 12.39ZM128.48 21.47L130.03 18.17L135.93 20.96L136.73 19.27L128.82 15.53L123.7 26.36L125.71 27.31L127.67 23.17L132.9 25.64L133.7 23.94L128.48 21.47ZM59.99 30.13L59 28.55L53.28 32.16L51.52 29.36L56.41 26.28L55.44 24.73L50.54 27.81L48.88 25.18L54.4 21.7L53.41 20.12L46.01 24.78L52.39 34.92L59.99 30.13ZM141.96 22.43L140.11 21.19L133.47 31.16L140.53 35.87L141.58 34.3L136.36 30.83L141.96 22.43ZM36.71 34.88L39.72 32.28L46.32 39.92L48 38.47L41.4 30.83L44.41 28.23L43.18 26.81L35.48 33.45L36.71 34.88ZM143.96 37.85C144.31 38.92 144.96 39.86 145.85 40.68C146.75 41.5 147.74 42.06 148.83 42.31C149.91 42.58 150.96 42.57 152.02 42.26C153.07 41.94 153.98 41.36 154.77 40.49C155.57 39.62 156.07 38.66 156.29 37.59C156.37 37.19 156.41 36.79 156.41 36.4C156.41 35.73 156.3 35.07 156.08 34.4C155.72 33.35 155.07 32.41 154.17 31.59C153.28 30.77 152.28 30.2 151.21 29.94C150.12 29.68 149.06 29.69 148.01 30.01C146.96 30.32 146.04 30.92 145.25 31.78C144.47 32.63 143.96 33.59 143.75 34.66C143.66 35.07 143.62 35.47 143.62 35.88C143.62 36.54 143.73 37.2 143.96 37.85ZM149.13 40.29C148.42 40.13 147.76 39.78 147.17 39.24C146.58 38.69 146.17 38.07 145.95 37.38C145.82 36.97 145.75 36.56 145.75 36.14C145.75 35.85 145.78 35.55 145.86 35.25C146.02 34.54 146.36 33.88 146.91 33.29C147.45 32.7 148.07 32.29 148.78 32.06C149.47 31.83 150.2 31.8 150.91 31.96C151.62 32.12 152.26 32.48 152.86 33.03C153.45 33.57 153.86 34.18 154.09 34.87C154.22 35.28 154.28 35.69 154.28 36.11C154.28 36.4 154.25 36.7 154.18 37C154.01 37.72 153.66 38.38 153.12 38.97C152.58 39.57 151.95 39.97 151.26 40.2C150.55 40.43 149.84 40.45 149.13 40.29ZM35.34 47.43L39.25 42.9L42.14 43.8L43.66 42.04L31.05 38.31L29.62 39.97L35.17 51.88L36.67 50.14L35.34 47.43ZM159.94 57.43L172.05 53.86L170.84 52.11L161.57 54.82L167.36 47.11L166.19 45.42L156.94 48.08L162.72 40.43L161.4 38.54L153.83 48.63L155.19 50.59L164.19 48L158.6 55.49L159.94 57.43ZM32.01 40.6L37.45 42.31L34.51 45.72L32.01 40.6ZM29.4 54.74L33.67 54.47L34.92 52.43L30.12 52.73C30.17 52.45 30.19 52.18 30.19 51.91C30.19 51.36 30.09 50.84 29.87 50.35C29.53 49.65 28.99 49.06 28.22 48.58C27.47 48.13 26.71 47.9 25.95 47.93C25.2 47.95 24.47 48.18 23.78 48.66C23.09 49.14 22.47 49.83 21.92 50.72L19.36 54.93L29.59 61.17L30.75 59.27L27.76 57.45L29.17 55.14C29.28 54.96 29.36 54.83 29.4 54.74ZM25.15 50.22C25.76 50.01 26.39 50.1 27.05 50.5C27.71 50.9 28.07 51.42 28.16 52.06C28.18 52.17 28.19 52.28 28.19 52.4C28.19 52.96 27.98 53.58 27.55 54.27L26.2 56.5L22.12 54.01L23.48 51.79C23.99 50.96 24.54 50.43 25.15 50.22ZM28.5 63.42L26.77 62.72L24.24 68.99L21.18 67.75L23.34 62.39L21.64 61.7L19.48 67.07L16.59 65.9L19.03 59.85L17.3 59.16L14.03 67.27L25.14 71.75L28.5 63.42ZM172.84 75.04C173.19 74.51 173.37 73.91 173.37 73.2C173.76 73.58 174.2 73.83 174.73 73.94C175.25 74.05 175.78 74.02 176.35 73.83C177.28 73.53 177.88 72.93 178.17 72.02C178.28 71.67 178.33 71.29 178.33 70.88C178.33 70.23 178.19 69.49 177.92 68.66L176.15 63.33L164.78 67.1L166.66 72.76C167.14 74.2 167.78 75.22 168.57 75.8C169.36 76.39 170.23 76.51 171.22 76.19C171.93 75.95 172.48 75.57 172.84 75.04ZM172.06 67.03L175.2 66L176.19 68.98C176.35 69.47 176.43 69.9 176.43 70.27Q176.43 70.57 176.36 70.82C176.22 71.3 175.89 71.63 175.37 71.8C174.87 71.96 174.41 71.9 174.02 71.6C173.61 71.28 173.29 70.75 173.05 70.02L172.06 67.03ZM170.72 73.99C169.64 74.35 168.81 73.72 168.27 72.08L167.14 68.67L170.42 67.58L171.55 70.99C171.73 71.53 171.82 72 171.82 72.41C171.82 73.22 171.45 73.75 170.72 73.99ZM11.48 76.67L10.94 78.83L22.58 81.7L24.61 73.46L22.78 73.01L21.28 79.09L11.48 76.67ZM169.4 84.4L173.57 83.71L181.98 87.06L181.63 84.9L175.29 82.37L180.47 77.95L180.08 75.6L173.17 81.52L169.03 82.21L169.4 84.4ZM22.14 84.15L20.29 83.98L19.66 90.71L16.37 90.4L16.91 84.64L15.08 84.47L14.54 90.23L11.44 89.94L12.05 83.45L10.19 83.28L9.38 91.99L21.31 93.1L22.14 84.15ZM176.37 102.13C177.05 101.35 177.43 100.12 177.5 98.43L177.54 97.28L180.3 97.65L180.09 102.8L181.96 102.88L182.24 95.85L175.75 94.96L175.64 97.85C175.59 99.03 175.4 99.85 175.07 100.33C174.73 100.8 174.25 101.02 173.64 100.99C173.07 100.97 172.64 100.73 172.33 100.27C172.05 99.84 171.91 99.28 171.91 98.6C171.91 98.53 171.91 98.46 171.91 98.38C171.94 97.72 172.07 97.09 172.32 96.48C172.55 95.86 172.86 95.34 173.24 94.91L171.55 93.9C171.1 94.43 170.73 95.08 170.46 95.88C170.17 96.67 170.01 97.48 169.98 98.34C169.97 98.46 169.97 98.59 169.97 98.71C169.97 99.59 170.11 100.35 170.39 100.98C170.7 101.69 171.14 102.24 171.7 102.62C172.27 103.01 172.91 103.21 173.63 103.24C174.76 103.28 175.67 102.91 176.37 102.13ZM21.13 103.32C21.53 102.47 21.72 101.56 21.72 100.58C21.72 100.39 21.72 100.2 21.7 100C21.63 99.03 21.4 98.13 21 97.34C20.6 96.56 20.05 95.91 19.37 95.4L18.1 96.93C19.1 97.73 19.66 98.76 19.75 100.02C19.76 100.14 19.76 100.27 19.76 100.39C19.76 101.06 19.62 101.69 19.36 102.26C19.05 102.94 18.59 103.48 17.98 103.89C17.38 104.29 16.66 104.53 15.85 104.59C15.05 104.65 14.3 104.51 13.65 104.2C12.99 103.88 12.44 103.41 12.04 102.78C11.63 102.16 11.41 101.44 11.35 100.62C11.34 100.5 11.34 100.38 11.34 100.27C11.34 99.15 11.73 98.18 12.52 97.33L11.07 95.99C10.46 96.6 10.01 97.32 9.73 98.14C9.5 98.81 9.39 99.53 9.39 100.29C9.39 100.48 9.4 100.67 9.41 100.86C9.5 102.07 9.83 103.13 10.43 104.07C11.04 105 11.82 105.72 12.8 106.21C13.77 106.71 14.84 106.91 16.01 106.82C17.19 106.74 18.21 106.39 19.11 105.76C20.01 105.15 20.67 104.33 21.13 103.32ZM169.94 106.86C169.32 107.51 168.92 108.3 168.74 109.24C168.68 109.57 168.65 109.89 168.65 110.2C168.65 110.79 168.76 111.37 168.99 111.92C169.32 112.75 169.9 113.47 170.74 114.06C171.57 114.65 172.61 115.08 173.87 115.31C175.13 115.55 176.25 115.54 177.25 115.29C178.24 115.04 179.04 114.58 179.67 113.93C180.28 113.27 180.68 112.47 180.85 111.53C180.92 111.2 180.95 110.88 180.95 110.56C180.95 109.97 180.84 109.41 180.62 108.87C180.28 108.04 179.7 107.32 178.87 106.73C178.02 106.13 176.99 105.71 175.73 105.47C174.46 105.24 173.35 105.25 172.36 105.5C171.35 105.75 170.55 106.21 169.94 106.86ZM170.6 110.11C170.6 109.95 170.61 109.78 170.64 109.6C170.8 108.78 171.28 108.19 172.06 107.83C172.84 107.47 173.93 107.42 175.31 107.68C176.69 107.94 177.68 108.39 178.28 109C178.76 109.5 179 110.06 179 110.68C179 110.84 178.99 111 178.95 111.17C178.8 112.01 178.31 112.62 177.53 112.97C176.75 113.33 175.66 113.37 174.29 113.11C172.91 112.85 171.91 112.42 171.31 111.8C170.84 111.31 170.6 110.74 170.6 110.11ZM23.64 113.71C23.64 113.16 23.57 112.59 23.43 112.01C23.2 111.06 22.82 110.22 22.3 109.5C21.77 108.8 21.13 108.25 20.37 107.85L19.37 109.57C20.49 110.2 21.21 111.12 21.5 112.35C21.6 112.73 21.64 113.11 21.64 113.48C21.64 113.87 21.59 114.25 21.49 114.62C21.29 115.34 20.93 115.95 20.4 116.45C19.87 116.95 19.19 117.3 18.41 117.49C17.63 117.68 16.87 117.67 16.17 117.47C15.47 117.27 14.85 116.89 14.35 116.34C13.85 115.79 13.51 115.12 13.32 114.32C13.23 113.95 13.18 113.6 13.18 113.25C13.18 112.42 13.43 111.63 13.93 110.88L12.28 109.8C11.78 110.5 11.46 111.28 11.31 112.14C11.26 112.47 11.23 112.81 11.23 113.16C11.23 113.71 11.3 114.29 11.44 114.88C11.73 116.06 12.23 117.05 12.98 117.87C13.74 118.69 14.62 119.27 15.66 119.6C16.71 119.93 17.79 119.95 18.94 119.67C20.09 119.4 21.04 118.89 21.82 118.12C22.61 117.36 23.12 116.45 23.41 115.37C23.57 114.83 23.64 114.28 23.64 113.71ZM174.83 130.73L175.42 129.16L167.11 117.27L166.52 118.84L174.83 130.73ZM173.51 118.54C172.77 118.82 172.23 119.36 171.93 120.16C171.8 120.51 171.73 120.86 171.73 121.2C171.73 121.63 171.83 122.04 172.04 122.43C172.41 123.14 173.06 123.66 173.99 124.01C174.91 124.36 175.74 124.4 176.51 124.12C177.24 123.83 177.77 123.28 178.08 122.48C178.21 122.13 178.28 121.79 178.28 121.45C178.28 121.03 178.17 120.62 177.96 120.23C177.59 119.52 176.93 118.99 176.02 118.65C175.1 118.3 174.26 118.26 173.51 118.54ZM26.06 128.63L23.7 123.13L25.77 120.94L24.85 118.8L15.98 128.5L16.84 130.51L29.98 130.73L29.07 128.63L26.06 128.63ZM173.18 121.8C173.03 121.58 172.95 121.34 172.95 121.09C172.95 120.92 172.99 120.75 173.05 120.58C173.21 120.16 173.51 119.89 173.96 119.79C174.39 119.66 174.92 119.71 175.53 119.94C176.13 120.17 176.57 120.48 176.82 120.87C176.97 121.1 177.05 121.34 177.05 121.59C177.05 121.74 177.02 121.9 176.96 122.06C176.79 122.49 176.48 122.78 176.06 122.89C175.63 123 175.11 122.93 174.48 122.7C173.86 122.46 173.42 122.17 173.18 121.8ZM165.45 123.89C164.7 124.17 164.17 124.7 163.87 125.5C163.73 125.86 163.67 126.2 163.67 126.54C163.67 126.96 163.77 127.37 163.98 127.78C164.35 128.49 165.01 129.01 165.92 129.36C166.83 129.7 167.68 129.75 168.43 129.46C169.18 129.16 169.71 128.63 170.01 127.83C170.15 127.48 170.21 127.13 170.21 126.8C170.21 126.38 170.11 125.97 169.9 125.57C169.53 124.86 168.87 124.34 167.95 123.99C167.04 123.65 166.2 123.6 165.45 123.89ZM18.46 128.64L22.38 124.5L24.16 128.63L18.46 128.64ZM165.13 127.14C164.97 126.91 164.89 126.67 164.89 126.41C164.89 126.26 164.92 126.09 164.99 125.93C165.15 125.49 165.45 125.23 165.88 125.11C166.31 125 166.84 125.05 167.46 125.29C168.09 125.53 168.52 125.84 168.76 126.2C168.91 126.43 168.99 126.66 168.99 126.91C168.99 127.07 168.96 127.24 168.89 127.41C168.73 127.84 168.43 128.11 168 128.22C167.56 128.33 167.03 128.27 166.42 128.04C165.81 127.81 165.38 127.5 165.13 127.14ZM157.6 138.72L159.3 142.83L163.73 142.84L164.78 141.28L161.35 141.16L164.3 136.79L163 135.92L160.06 140.29L158.65 137.15L157.6 138.72ZM33.9 138.5L29.45 138.68L27.91 142.84L29.01 144.36L30.31 141.19L33.4 145.46L34.66 144.54L31.57 140.27L35 140.03L33.9 138.5ZM151.05 146.8L152.17 151.12L156.56 151.74L157.81 150.34L154.44 149.75L157.95 145.82L156.79 144.78L153.28 148.71L152.31 145.4L151.05 146.8ZM40.39 146.6L36 147.38L35.05 151.71L36.35 153.07L37.2 149.75L40.84 153.56L41.96 152.48L38.32 148.67L41.69 147.96L40.39 146.6ZM143.46 153.89L143.98 158.32L148.24 159.53L149.68 158.32L146.41 157.27L150.43 153.86L149.43 152.67L145.4 156.08L144.9 152.67L143.46 153.89ZM47.96 153.77L43.73 155.15L43.38 159.57L44.85 160.74L45.24 157.33L49.37 160.6L50.34 159.38L46.2 156.11L49.44 154.94L47.96 153.77ZM87.05 172.21C86.47 171.43 85.72 170.98 84.79 170.84C83.81 170.69 82.93 170.89 82.16 171.47C81.37 172.03 80.91 172.79 80.76 173.76C80.74 173.95 80.72 174.14 80.72 174.32C80.72 175.07 80.95 175.76 81.42 176.38C81.99 177.16 82.76 177.62 83.71 177.75C84.67 177.9 85.53 177.68 86.31 177.1C87.1 176.53 87.56 175.76 87.7 174.8C87.73 174.61 87.75 174.43 87.75 174.25C87.75 173.52 87.51 172.84 87.05 172.21ZM107.55 171.83C106.79 171.23 105.95 170.99 105.02 171.1C104.03 171.22 103.24 171.64 102.64 172.4C102.12 173.03 101.87 173.73 101.87 174.51C101.87 174.66 101.88 174.82 101.9 174.98C102.02 175.94 102.46 176.74 103.22 177.33C103.98 177.93 104.84 178.17 105.79 178.06C106.76 177.94 107.53 177.5 108.13 176.74C108.64 176.1 108.9 175.4 108.9 174.61C108.9 174.46 108.89 174.31 108.87 174.15C108.75 173.2 108.32 172.42 107.55 171.83ZM97.31 172.7C96.64 172 95.84 171.65 94.9 171.64C93.9 171.62 93.06 171.94 92.37 172.61C91.65 173.27 91.3 174.09 91.29 175.06C91.29 175.08 91.29 175.1 91.29 175.12C91.29 176.07 91.62 176.89 92.28 177.58C92.96 178.27 93.77 178.62 94.73 178.64C95.71 178.65 96.53 178.32 97.23 177.64C97.94 176.97 98.29 176.15 98.3 175.17C98.3 175.16 98.31 175.14 98.31 175.12C98.31 174.19 97.97 173.38 97.31 172.7Z" fill="#02E4C0" fill-opacity="1.000000" fill-rule="evenodd"/>
	<path id="Vector" d="M95.27 161.65C58.61 161.65 28.89 131.93 28.89 95.26C28.89 58.6 58.61 28.88 95.27 28.88C131.93 28.88 161.65 58.6 161.65 95.26C161.65 131.93 131.93 161.65 95.27 161.65Z" stroke="#4452FE" stroke-opacity="1.000000" stroke-width="2.000000" stroke-linejoin="round"/>
	<path id="Vector" d="M95.27 190.51C42.68 190.51 0.04 147.87 0.04 95.28C0.04 42.68 42.68 0.05 95.27 0.05C147.87 0.05 190.5 42.68 190.5 95.28C190.5 147.87 147.87 190.51 95.27 190.51Z" stroke="#4452FE" stroke-opacity="1.000000" stroke-width="2.000000" stroke-linejoin="round"/>
	<path id="Vector" d="M96.31 59.81L107.18 81.97L131.51 85.54L113.91 102.78L118.06 127.13L96.31 115.63L74.55 127.13L78.71 102.78L61.11 85.54L85.43 81.97L96.31 59.81Z" fill="#181818" fill-opacity="1.000000" fill-rule="nonzero"/>
	<path id="Vector" d="M107.18 81.97L131.51 85.54L113.91 102.78L118.06 127.13L96.31 115.63L74.55 127.13L78.71 102.78L61.11 85.54L85.43 81.97L96.31 59.81L107.18 81.97Z" stroke="#FFFFFF" stroke-opacity="1.000000" stroke-width="2.000000" stroke-linejoin="round"/>
</svg>
