<svg width="30.000000" height="30.000000" viewBox="0 0 30 30" fill="none" xmlns="http://www.w3.org/2000/svg" xmlns:xlink="http://www.w3.org/1999/xlink">
	<desc>
			Created with Pixso.
	</desc>
	<defs>
		<clipPath id="clip0_323">
			<rect width="30.000000" height="30.000000" transform="translate(-0.500000 0.000000)" fill="white" fill-opacity="0"/>
		</clipPath>
	</defs>
	<g clip-path="url(#clip0_323)">
		<path d="M22.47 9C20.73 9 19.09 9.67 17.91 10.84L9.42 18.38C8.65 19.16 7.62 19.58 6.52 19.58C4.26 19.58 2.41 17.75 2.41 15.5C2.41 13.24 4.26 11.41 6.52 11.41C7.62 11.41 8.65 11.83 9.47 12.66L10.83 13.86L12.68 12.25L11.14 10.9C10.53 10.3 9.81 9.82 9.02 9.49C8.23 9.16 7.38 8.99 6.52 9C2.92 9 0 11.92 0 15.5C0 19.07 2.92 22 6.52 22C8.26 22 9.9 21.32 11.08 20.15L19.57 12.61C20.34 11.83 21.37 11.41 22.47 11.41C24.73 11.41 26.58 13.24 26.58 15.5C26.58 17.75 24.73 19.58 22.47 19.58C21.38 19.58 20.34 19.16 19.52 18.33L18.12 17.11L16.31 18.73L17.85 20.09C18.46 20.69 19.18 21.17 19.97 21.49C20.77 21.82 21.61 21.99 22.47 21.98C26.07 21.98 29 19.07 29 15.5C29 11.87 26.07 9 22.47 9Z" fill="#02E4C0" fill-opacity="1.000000" fill-rule="nonzero"/>
	</g>
</svg>
