<svg width="72.000000" height="60.000000" viewBox="0 0 72 60" fill="none" xmlns="http://www.w3.org/2000/svg" xmlns:xlink="http://www.w3.org/1999/xlink">
	<desc>
			Created with Pixso.
	</desc>
	<defs>
		<clipPath id="clip0_405">
			<rect width="72.112679" height="60.000000" transform="translate(-0.628052 -0.726562)" fill="white" fill-opacity="0"/>
		</clipPath>
	</defs>
	<rect width="72.112679" height="60.000000" transform="translate(-0.628052 -0.726562)" fill="#FFFFFF" fill-opacity="0"/>
	<g clip-path="url(#clip0_405)">
		<path d="M35.51 -0.73C16.17 -0.73 1.02 23.87 -0.41 44.65C5.66 55.18 20.29 59.13 35.51 59.13C50.73 59.13 65.36 55.18 71.42 44.65C69.99 23.87 54.84 -0.73 35.51 -0.73L35.51 -0.73Z" fill="#B6DEFF" fill-opacity="1.000000" fill-rule="nonzero"/>
		<path d="M66.37 39.7C66.37 39.7 62.1 30.46 57.76 25.08C53.41 19.69 48.11 13.82 44.97 13.82C41.84 13.82 33.08 29.34 29.06 29.34C25.04 29.34 22.95 22.3 18 22.3C13.06 22.3 5.2 39.26 5.2 39.26L4.67 42.14C4.67 42.14 7.4 54.24 35.95 54.24C64.51 54.24 66.79 42.34 66.79 42.34L66.37 39.7L66.37 39.7Z" fill="#66CC66" fill-opacity="1.000000" fill-rule="nonzero"/>
		<path d="M29.5 35.96C25.07 35.96 22.8 31.58 21.56 28.88C20.45 26.45 20.26 22.61 17.12 22.5C17.43 22.38 17.72 22.3 18 22.3C22.95 22.3 25.04 29.34 29.06 29.34C33.08 29.34 41.84 13.82 44.97 13.82C45.57 13.82 46.23 14.03 46.95 14.4C46.42 14.33 45.73 14.38 45.21 14.91C44.19 15.92 34.99 35.96 29.5 35.96Z" fill="#17AD49" fill-opacity="1.000000" fill-rule="nonzero"/>
	</g>
</svg>
