<svg width="60.000000" height="65.000000" viewBox="0 0 60 65" fill="none" xmlns="http://www.w3.org/2000/svg" xmlns:xlink="http://www.w3.org/1999/xlink">
	<desc>
			Created with Pixso.
	</desc>
	<defs>
		<clipPath id="clip0_409">
			<rect width="60.289856" height="65.000000" transform="translate(-0.515381 -0.226562)" fill="white" fill-opacity="0"/>
		</clipPath>
	</defs>
	<rect width="60.289856" height="65.000000" transform="translate(-0.515381 -0.226562)" fill="#FFFFFF" fill-opacity="0"/>
	<g clip-path="url(#clip0_409)">
		<path d="M55.27 53.06C54.82 56.42 52.56 59.33 49.39 60.63C47.84 61.27 46.16 61.47 44.48 61.27C42.86 61.08 41.24 60.56 39.56 59.59C37.24 58.3 34.91 56.3 32.19 53.32C36.46 48.09 39.04 43.3 40.01 39.04C40.47 37.03 40.53 35.22 40.34 33.54C40.08 31.93 39.5 30.44 38.59 29.15C36.59 26.24 33.23 24.56 29.48 24.56C25.73 24.56 22.37 26.3 20.36 29.15C19.46 30.44 18.88 31.93 18.62 33.54C18.36 35.22 18.43 37.1 18.94 39.04C19.91 43.3 22.56 48.15 26.76 53.39C24.11 56.36 21.72 58.36 19.39 59.66C17.71 60.63 16.1 61.14 14.48 61.34C12.82 61.52 11.13 61.3 9.57 60.69C6.4 59.4 4.14 56.49 3.69 53.13C3.49 51.51 3.62 49.9 4.27 48.09C4.46 47.44 4.79 46.79 5.11 46.02C5.56 44.98 6.08 43.88 6.6 42.78L6.66 42.66C11.12 33.02 15.9 23.2 20.88 13.63L21.08 13.24C21.59 12.28 22.11 11.24 22.63 10.27C23.14 9.24 23.73 8.27 24.44 7.43C25.79 5.87 27.6 5.03 29.61 5.03C31.61 5.03 33.42 5.87 34.78 7.43C35.49 8.27 36.07 9.24 36.59 10.27C37.11 11.24 37.62 12.28 38.14 13.24L38.33 13.63C43.25 23.26 48.03 33.09 52.49 42.72L52.49 42.78C53.01 43.82 53.46 44.98 53.98 46.02C54.3 46.79 54.62 47.44 54.82 48.09C55.33 49.77 55.53 51.38 55.27 53.06L55.27 53.06ZM29.48 50.02C25.99 45.63 23.73 41.49 22.95 38C22.63 36.52 22.56 35.22 22.76 34.06C22.89 33.02 23.27 32.12 23.79 31.34C25.02 29.6 27.09 28.5 29.48 28.5C31.87 28.5 34 29.53 35.17 31.34C35.68 32.12 36.07 33.02 36.2 34.06C36.39 35.22 36.33 36.58 36.01 38C35.23 41.43 32.97 45.56 29.48 50.02ZM58.63 46.66C58.31 45.89 57.99 45.05 57.66 44.34C57.14 43.17 56.63 42.07 56.18 41.04L56.11 40.98C51.65 31.28 46.87 21.45 41.82 11.76L41.63 11.37C41.11 10.4 40.6 9.37 40.08 8.33C39.43 7.17 38.79 5.94 37.75 4.78C35.68 2.19 32.71 0.77 29.54 0.77C26.31 0.77 23.4 2.19 21.27 4.65C20.3 5.81 19.59 7.04 18.94 8.2C18.42 9.24 17.91 10.27 17.39 11.24L17.2 11.63C12.22 21.32 7.37 31.15 2.91 40.85L2.85 40.98C2.39 42.01 1.88 43.11 1.36 44.27C1.01 45.04 0.69 45.81 0.39 46.6C-0.45 48.99 -0.71 51.25 -0.39 53.58C0.33 58.43 3.56 62.5 8.02 64.31C9.7 65.02 11.44 65.35 13.25 65.35C13.77 65.35 14.42 65.28 14.93 65.22C17.07 64.96 19.27 64.25 21.4 63.02C24.05 61.53 26.57 59.4 29.41 56.3C32.26 59.4 34.84 61.53 37.43 63.02C39.56 64.25 41.76 64.96 43.89 65.22C44.41 65.28 45.06 65.35 45.57 65.35C47.38 65.35 49.19 65.02 50.81 64.31C55.33 62.5 58.5 58.36 59.21 53.58C59.73 51.32 59.47 49.06 58.63 46.66L58.63 46.66Z" fill="#E0565B" fill-opacity="1.000000" fill-rule="nonzero"/>
	</g>
</svg>
