<svg width="150.000000" height="60.000000" viewBox="0 0 150 60" fill="none" xmlns="http://www.w3.org/2000/svg" xmlns:xlink="http://www.w3.org/1999/xlink">
	<desc>
			Created with Pixso.
	</desc>
	<defs>
		<clipPath id="clip0_411">
			<rect width="149.853653" height="60.000000" transform="translate(-0.225586 -0.726562)" fill="white" fill-opacity="0"/>
		</clipPath>
	</defs>
	<rect width="149.853653" height="60.000000" transform="translate(-0.225586 -0.726562)" fill="#FFFFFF" fill-opacity="0"/>
	<g clip-path="url(#clip0_411)">
		<path d="M-0.23 -0.73L-0.23 3.37L28.94 3.37L28.94 -0.73L-0.23 -0.73ZM33.07 -0.73L33.07 3.37L74.64 3.37C74.64 3.37 70.39 -0.73 64.77 -0.73L33.07 -0.73ZM82.79 -0.73L82.79 3.37L107.94 3.37L106.45 -0.73L82.79 -0.73ZM125.97 -0.73L124.48 3.37L149.39 3.37L149.39 -0.73L125.97 -0.73ZM-0.23 7.24L-0.23 11.35L28.94 11.35L28.94 7.24L-0.23 7.24ZM33.07 7.25L33.07 11.35L79.46 11.35C79.46 11.35 78.92 8.19 77.97 7.25L33.07 7.25ZM82.79 7.25L82.79 11.35L110.7 11.35L109.32 7.25L82.79 7.25ZM122.98 7.25L121.6 11.35L149.39 11.35L149.39 7.25L122.98 7.25ZM8.15 15.22L8.15 19.33L20.78 19.33L20.78 15.22L8.15 15.22ZM41.45 15.22L41.45 19.33L54.09 19.33L54.09 15.22L41.45 15.22ZM66.37 15.22L66.37 19.33L79 19.33C79 19.33 79.81 17.16 79.81 15.22L66.37 15.22L66.37 15.22ZM91.17 15.22L91.17 19.33L113.57 19.33L112.08 15.22L91.17 15.22L91.17 15.22ZM120.23 15.22L118.73 19.33L141.24 19.33L141.24 15.22L120.23 15.22ZM8.15 23.2L8.15 27.3L20.78 27.3L20.78 23.2L8.15 23.2ZM41.45 23.2L41.45 27.3L73.72 27.3C73.72 27.3 76.42 25.2 77.28 23.2L41.45 23.2L41.45 23.2ZM91.17 23.2L91.17 27.3L103.81 27.3L103.81 25.02L104.61 27.3L127.75 27.3L128.61 25.02L128.61 27.3L141.24 27.3L141.24 23.2L117.53 23.2L116.27 26.67L115.01 23.2L91.17 23.2ZM8.15 31.18L8.15 35.28L20.78 35.28L20.78 31.18L8.15 31.18ZM41.45 31.18L41.45 35.28L77.28 35.28C76.42 33.29 73.72 31.18 73.72 31.18L41.45 31.18ZM91.17 31.18L91.17 35.28L103.81 35.28L103.81 31.18L91.17 31.18ZM106.1 31.18L107.63 35.28L124.98 35.28L126.43 31.18L106.1 31.18ZM128.61 31.18L128.61 35.28L141.24 35.28L141.24 31.18L128.61 31.18ZM8.15 39.15L8.15 43.25L20.78 43.25L20.78 39.15L8.15 39.15ZM41.45 39.15L41.45 43.25L54.09 43.25L54.09 39.15L41.45 39.15ZM66.37 39.15L66.37 43.25L79.81 43.25C79.81 41.32 79 39.15 79 39.15L66.37 39.15ZM91.17 39.15L91.17 43.25L103.81 43.25L103.81 39.15L91.17 39.15ZM108.97 39.15L110.45 43.25L122.08 43.25L123.57 39.15L108.97 39.15ZM128.61 39.15L128.61 43.25L141.24 43.25L141.24 39.15L128.61 39.15ZM0 47.13L0 51.23L29.17 51.23L29.17 47.13L0 47.13L0 47.13ZM33.07 47.13L33.07 51.23L77.97 51.23C78.92 50.29 79.46 47.13 79.46 47.13L33.07 47.13L33.07 47.13ZM83.02 47.13L83.02 51.23L103.81 51.23L103.81 47.13L83.02 47.13L83.02 47.13ZM111.84 47.13L113.37 51.23L119.28 51.23L120.71 47.13L111.84 47.13L111.84 47.13ZM128.61 47.13L128.61 51.23L149.62 51.23L149.62 47.13L128.61 47.13L128.61 47.13ZM0 55.11L0 59.21L29.17 59.21L29.17 55.11L0 55.11ZM33.07 55.11L33.07 59.2L64.77 59.2C70.39 59.2 74.64 55.11 74.64 55.11L33.07 55.11L33.07 55.11ZM83.02 55.11L83.02 59.21L103.81 59.21L103.81 55.11L83.02 55.11ZM114.73 55.11L116.19 59.2L116.45 59.2L117.93 55.11L114.73 55.11L114.73 55.11ZM128.61 55.11L128.61 59.21L149.62 59.21L149.62 55.11L128.61 55.11Z" fill="#1F70C1" fill-opacity="1.000000" fill-rule="nonzero"/>
	</g>
</svg>
