<svg width="189.000000" height="58.000000" viewBox="0 0 189 58" fill="none" xmlns="http://www.w3.org/2000/svg" xmlns:xlink="http://www.w3.org/1999/xlink">
	<desc>
			Created with Pixso.
	</desc>
	<defs>
		<clipPath id="clip0_270">
			<rect width="189.000000" height="58.000000" fill="white" fill-opacity="0"/>
		</clipPath>
		<linearGradient id="paint_linear_2_132_0" x1="131.430252" y1="19.148994" x2="134.955063" y2="48.075840" gradientUnits="userSpaceOnUse">
			<stop stop-color="#4452FE"/>
			<stop offset="1.000000" stop-color="#4452FE" stop-opacity="0.000000"/>
		</linearGradient>
		<linearGradient id="paint_linear_2_133_0" x1="9.000002" y1="9.999981" x2="52.000000" y2="18.999992" gradientUnits="userSpaceOnUse">
			<stop stop-color="#02E4C0"/>
			<stop offset="1.000000" stop-color="#4452FE" stop-opacity="0.000000"/>
		</linearGradient>
	</defs>
	<g clip-path="url(#clip0_270)">
		<path d="M24.37 29.37Q24.89 29.67 25.28 30.1Q26.35 31.29 26.35 33.45L26.35 34.3C26.35 35.83 25.94 37 25.12 37.8C24.32 38.6 23.15 39 21.62 39L14.77 39C14.44 39 14.18 38.9 14 38.72Q13.97 38.69 13.94 38.66Q13.72 38.39 13.72 37.95L13.72 23.1Q13.72 22.65 13.94 22.38L13.94 22.38Q13.97 22.35 14 22.32Q14.03 22.29 14.06 22.26L14.06 22.26L14.06 22.26Q14.33 22.05 14.77 22.05L21.3 22.05Q23.13 22.05 24.19 22.95Q24.27 23.02 24.35 23.1Q24.46 23.21 24.56 23.33Q25.42 24.35 25.42 26.1L25.42 26.77C25.42 27.3 25.33 27.8 25.15 28.25C24.96 28.7 24.7 29.07 24.37 29.37ZM43.67 37.52C43.73 37.67 43.77 37.84 43.77 38.02C43.77 38.42 43.54 38.71 43.09 38.9C42.94 38.96 42.78 39 42.59 39C42.19 39 41.9 38.77 41.72 38.32L40.37 35.05L32.59 35.05L31.29 38.32C31.11 38.77 30.82 39 30.42 39C30.25 39 30.09 38.96 29.94 38.9C29.48 38.73 29.24 38.44 29.24 38.02C29.24 37.84 29.28 37.67 29.34 37.52L35.29 22.87C35.54 22.32 35.93 22.05 36.47 22.05L36.52 22.05C37.07 22.08 37.43 22.35 37.62 22.87L43.67 37.52ZM77.75 39C77.05 39 76.7 38.65 76.7 37.95L76.7 23.1C76.7 22.4 77.05 22.05 77.75 22.05C78.45 22.05 78.8 22.4 78.8 23.1L78.8 36.9L85.73 36.9Q86.25 36.9 86.52 37.16Q86.78 37.42 86.78 37.95C86.78 38.65 86.43 39 85.73 39L77.75 39ZM100.46 36.9C100.79 36.9 101.05 36.99 101.23 37.17C101.41 37.35 101.51 37.61 101.51 37.95Q101.51 38.39 101.29 38.66Q101.26 38.69 101.23 38.72C101.05 38.9 100.79 39 100.46 39L91.48 39C91.15 39 90.89 38.9 90.7 38.72Q90.67 38.69 90.65 38.66Q90.43 38.39 90.43 37.95L90.43 23.1Q90.43 22.65 90.65 22.38Q90.67 22.35 90.7 22.32C90.89 22.14 91.15 22.05 91.48 22.05L100.46 22.05C100.79 22.05 101.05 22.14 101.23 22.32Q101.26 22.35 101.29 22.38L101.29 22.38Q101.51 22.65 101.51 23.1Q101.51 23.54 101.29 23.81Q101.26 23.84 101.23 23.87C101.05 24.05 100.79 24.15 100.46 24.15L92.53 24.15L92.53 29.4L97.5 29.4C97.84 29.4 98.1 29.49 98.28 29.67C98.46 29.85 98.55 30.11 98.55 30.45C98.55 30.78 98.46 31.04 98.28 31.22C98.1 31.4 97.84 31.5 97.5 31.5L92.53 31.5L92.53 36.9L100.46 36.9ZM114.8 39C114.1 39 113.75 38.65 113.75 37.95L113.75 23.1C113.75 22.4 114.1 22.05 114.8 22.05Q115.33 22.05 115.59 22.31Q115.85 22.57 115.85 23.1L115.85 36.9L122.78 36.9C123.48 36.9 123.83 37.25 123.83 37.95C123.83 38.65 123.48 39 122.78 39L114.8 39ZM157 22.05C157.34 22.05 157.6 22.14 157.78 22.32C157.96 22.5 158.06 22.76 158.06 23.1L158.06 37.95C158.06 38.28 157.96 38.54 157.78 38.72C157.6 38.9 157.34 39 157 39C156.81 39 156.62 38.95 156.46 38.85C156.29 38.75 156.12 38.59 155.96 38.37L146.43 26.1L146.43 37.95C146.43 38.28 146.34 38.54 146.16 38.72C145.97 38.9 145.71 39 145.38 39C145.05 39 144.79 38.9 144.61 38.72C144.42 38.54 144.33 38.28 144.33 37.95L144.33 23.1C144.33 22.76 144.42 22.5 144.61 22.32Q144.64 22.29 144.67 22.26Q144.94 22.05 145.38 22.05C145.58 22.05 145.75 22.1 145.91 22.2C146.07 22.3 146.25 22.45 146.43 22.67L155.96 34.95L155.96 23.1C155.96 22.76 156.05 22.5 156.23 22.32Q156.26 22.29 156.29 22.26Q156.56 22.05 157 22.05ZM164.5 39C164.17 39 163.91 38.9 163.73 38.72C163.54 38.54 163.45 38.28 163.45 37.95L163.45 23.1C163.45 22.76 163.54 22.5 163.73 22.32Q163.76 22.29 163.79 22.26L163.79 22.26Q164.06 22.05 164.5 22.05L170.53 22.05C172.71 22.05 174.31 22.56 175.33 23.6C176.36 24.61 176.88 26.21 176.88 28.4L176.88 32.65C176.88 34.83 176.36 36.44 175.33 37.47C174.31 38.49 172.71 39 170.53 39L164.5 39ZM50.67 39C49.97 39 49.62 38.65 49.62 37.95L49.62 24.17L44.77 24.17Q44.24 24.17 43.98 23.91Q43.72 23.65 43.72 23.12Q43.72 22.6 43.98 22.33Q44.24 22.07 44.77 22.07L56.57 22.07C57.27 22.07 57.62 22.42 57.62 23.12C57.62 23.82 57.27 24.17 56.57 24.17L51.72 24.17L51.72 37.95Q51.72 38.39 51.5 38.66Q51.47 38.69 51.44 38.72C51.26 38.9 51 39 50.67 39ZM66.22 39C65.52 39 65.17 38.65 65.17 37.95L65.17 24.17L60.32 24.17C59.62 24.17 59.27 23.82 59.27 23.12C59.27 22.42 59.62 22.07 60.32 22.07L72.12 22.07C72.82 22.07 73.17 22.42 73.17 23.12C73.17 23.82 72.82 24.17 72.12 24.17L67.27 24.17L67.27 37.95C67.27 38.28 67.18 38.54 67 38.72C66.81 38.9 66.56 39 66.22 39ZM15.82 28.77L22.07 28.77Q22.46 28.73 22.72 28.52Q22.9 28.38 23.02 28.17Q23.32 27.62 23.32 26.77L23.32 26.1C23.32 25.38 23.17 24.88 22.87 24.6Q22.42 24.15 21.3 24.15L15.82 24.15L15.82 28.77ZM170.53 36.9C171.61 36.9 172.45 36.76 173.05 36.5C173.67 36.23 174.11 35.8 174.38 35.2C174.64 34.58 174.78 33.73 174.78 32.65L174.78 28.4C174.78 27.31 174.64 26.47 174.38 25.87Q174.18 25.41 173.85 25.08Q173.51 24.75 173.05 24.55C172.45 24.28 171.61 24.15 170.53 24.15L165.55 24.15L165.55 36.9L170.53 36.9ZM33.42 32.95L39.52 32.95L36.39 25.37L33.42 32.95ZM24.25 33.45C24.25 32.51 24.05 31.85 23.65 31.47Q23.05 30.87 21.62 30.87L15.82 30.87L15.82 36.9L21.62 36.9Q23.02 36.9 23.62 36.3C24.04 35.9 24.25 35.23 24.25 34.3L24.25 33.45Z" fill="#FFFFFF" fill-opacity="1.000000" fill-rule="evenodd"/>
		<path d="M131.42 19.14L125.9 41.83L142.24 39.84L131.42 19.14Z" fill="url(#paint_linear_2_132_0)" fill-opacity="1.000000" fill-rule="evenodd"/>
		<rect x="12.000000" y="12.000000" rx="2.000000" width="34.000000" height="4.000000" fill="url(#paint_linear_2_133_0)" fill-opacity="1.000000"/>
	</g>
</svg>
