<svg width="24.000000" height="24.000000" viewBox="0 0 24 24" fill="none" xmlns="http://www.w3.org/2000/svg" xmlns:xlink="http://www.w3.org/1999/xlink">
	<desc>
			Created with Pixso.
	</desc>
	<defs/>
	<path id="Vector" d="M6.22 13.8L9.77 9.97L2.01 1.61C1.4 0.96 0.36 1.14 -0.02 1.98C-0.91 3.99 -0.58 6.47 0.96 8.14L6.22 13.8ZM14.73 11.35C16.65 12.31 19.35 11.63 21.35 9.48C23.74 6.9 24.21 3.2 22.36 1.21C20.53 -0.77 17.09 -0.28 14.68 2.3C12.69 4.45 12.06 7.36 12.95 9.43L1.58 21.68C1.34 21.93 1.21 22.28 1.21 22.63C1.21 22.99 1.34 23.33 1.58 23.59C1.81 23.84 2.13 23.98 2.46 23.98C2.8 23.98 3.11 23.84 3.35 23.59L11.12 15.24L18.87 23.6C18.99 23.73 19.13 23.82 19.28 23.89C19.43 23.96 19.6 24 19.76 24C19.92 24 20.09 23.96 20.24 23.89C20.39 23.82 20.53 23.73 20.64 23.6C20.76 23.48 20.85 23.33 20.92 23.16C20.98 23 21.01 22.82 21.01 22.65C21.01 22.47 20.98 22.29 20.92 22.13C20.85 21.97 20.76 21.82 20.64 21.69L12.89 13.34L14.73 11.35Z" fill="#02E4C0" fill-opacity="1.000000" fill-rule="nonzero"/>
</svg>
